<?xml version="1.0" encoding="UTF-8"?>
<svg xmlns="http://www.w3.org/2000/svg" xmlns:xlink="http://www.w3.org/1999/xlink" width="90px" height="90px" viewBox="0 0 90 90" version="1.1">
<g id="surface1">
<path style=" stroke:none;fill-rule:nonzero;fill:rgb(0%,0%,0%);fill-opacity:1;" d="M 78.28125 24.367188 C 77.976562 24.0625 77.566406 23.898438 77.144531 23.898438 C 77.132812 23.898438 77.132812 23.898438 77.132812 23.898438 L 72.316406 23.914062 L 72.316406 17.527344 C 72.316406 16.65625 71.601562 15.933594 70.710938 15.933594 L 68.707031 15.933594 C 56.625 15.933594 49.558594 17.675781 45 21.867188 C 40.441406 17.675781 33.363281 15.933594 21.292969 15.933594 L 19.289062 15.933594 C 18.398438 15.933594 17.683594 16.65625 17.683594 17.527344 L 17.683594 23.914062 L 12.855469 23.898438 C 12.421875 23.898438 12.023438 24.0625 11.71875 24.367188 C 11.414062 24.667969 11.25 25.074219 11.25 25.492188 L 11.25 66.492188 C 11.25 67.375 11.964844 68.097656 12.855469 68.097656 L 14.871094 68.097656 C 36.492188 68.097656 41.121094 72.925781 41.578125 73.484375 C 41.882812 73.84375 42.328125 74.066406 42.820312 74.066406 L 47.179688 74.066406 C 47.671875 74.066406 48.117188 73.84375 48.433594 73.484375 C 48.878906 72.925781 53.507812 68.097656 75.128906 68.097656 L 77.144531 68.097656 C 78.035156 68.097656 78.75 67.375 78.75 66.492188 L 78.75 25.492188 C 78.75 25.074219 78.574219 24.667969 78.28125 24.367188 Z M 14.460938 64.90625 L 14.460938 27.082031 L 17.683594 27.105469 L 17.683594 64.9375 C 16.769531 64.914062 15.832031 64.90625 14.871094 64.90625 Z M 20.894531 65.042969 L 20.894531 25.527344 C 20.894531 25.515625 20.894531 25.515625 20.894531 25.503906 L 20.894531 19.117188 L 21.292969 19.117188 C 33.046875 19.117188 39.527344 20.765625 43.394531 24.773438 L 43.394531 70.765625 C 41.261719 68.828125 35.578125 65.714844 20.894531 65.042969 Z M 46.605469 70.765625 L 46.605469 24.773438 C 50.472656 20.765625 56.953125 19.117188 68.707031 19.117188 L 69.105469 19.117188 L 69.105469 65.042969 C 54.410156 65.714844 48.738281 68.828125 46.605469 70.765625 Z M 75.539062 64.90625 L 75.128906 64.90625 C 74.167969 64.90625 73.230469 64.914062 72.316406 64.9375 L 72.316406 27.105469 L 75.539062 27.082031 Z M 75.539062 64.90625 "/>
</g>
</svg>
