<?xml version="1.0" encoding="UTF-8"?>
<svg xmlns="http://www.w3.org/2000/svg" xmlns:xlink="http://www.w3.org/1999/xlink" width="32px" height="32px" viewBox="0 0 32 32" version="1.1">
<g id="surface1">
<path style=" stroke:green;fill-rule:nonzero;fill:rgb(0%,0%,0%);fill-opacity:1;" d="M 12.09375 29.03125 C 11.914062 29.03125 11.734375 28.960938 11.597656 28.824219 L 0.382812 17.609375 C 0.25 17.476562 0.175781 17.300781 0.175781 17.113281 C 0.175781 16.925781 0.25 16.75 0.382812 16.617188 L 4.589844 12.410156 C 4.863281 12.132812 5.308594 12.132812 5.582031 12.410156 L 12.09375 18.917969 L 26.382812 4.628906 C 26.511719 4.5 26.691406 4.425781 26.878906 4.425781 C 27.0625 4.425781 27.242188 4.5 27.375 4.628906 L 31.582031 8.839844 C 31.855469 9.113281 31.855469 9.558594 31.582031 9.832031 L 12.589844 28.824219 C 12.453125 28.960938 12.273438 29.03125 12.09375 29.03125 Z M 1.871094 17.113281 L 12.09375 27.335938 L 30.09375 9.335938 L 26.878906 6.121094 L 12.589844 20.410156 C 12.316406 20.683594 11.871094 20.683594 11.597656 20.410156 L 5.085938 13.898438 Z M 1.871094 17.113281 "/>
</g>
</svg>
