<?xml version="1.0" encoding="UTF-8"?>
<svg xmlns="http://www.w3.org/2000/svg" xmlns:xlink="http://www.w3.org/1999/xlink" width="32px" height="32px" viewBox="0 0 32 32" version="1.1">
<g id="surface1">
<path style=" stroke:red;fill-rule:nonzero;fill:rgb(13.72549%,12.156863%,12.54902%);fill-opacity:1;" d="M 4.902344 31.886719 C 4.78125 31.886719 4.660156 31.835938 4.574219 31.75 L 0.136719 27.3125 C -0.046875 27.128906 -0.046875 26.835938 0.136719 26.652344 L 10.859375 15.929688 L 0.472656 5.546875 C 0.386719 5.457031 0.335938 5.339844 0.335938 5.214844 C 0.335938 5.09375 0.386719 4.976562 0.472656 4.886719 L 4.910156 0.453125 C 5.085938 0.277344 5.390625 0.277344 5.566406 0.453125 L 15.953125 10.835938 L 26.65625 0.136719 C 26.839844 -0.046875 27.132812 -0.046875 27.3125 0.136719 L 31.75 4.570312 C 31.839844 4.65625 31.886719 4.777344 31.886719 4.898438 C 31.886719 5.023438 31.839844 5.140625 31.75 5.226562 L 21.046875 15.929688 L 31.429688 26.320312 C 31.613281 26.5 31.613281 26.792969 31.429688 26.976562 L 26.996094 31.414062 C 26.824219 31.585938 26.515625 31.585938 26.339844 31.414062 L 15.953125 21.027344 L 5.230469 31.75 C 5.144531 31.835938 5.023438 31.886719 4.902344 31.886719 Z M 1.121094 26.984375 L 4.902344 30.765625 L 15.625 20.042969 C 15.804688 19.859375 16.097656 19.859375 16.28125 20.042969 L 26.667969 30.429688 L 30.445312 26.648438 L 20.0625 16.257812 C 19.878906 16.074219 19.878906 15.78125 20.0625 15.601562 L 30.765625 4.898438 L 26.984375 1.121094 L 16.28125 11.820312 C 16.097656 12.003906 15.804688 12.003906 15.625 11.820312 L 5.238281 1.4375 L 1.457031 5.214844 L 11.84375 15.601562 C 11.933594 15.6875 11.980469 15.804688 11.980469 15.929688 C 11.980469 16.050781 11.933594 16.167969 11.84375 16.257812 Z M 1.121094 26.984375 "/>
</g>
</svg>
