<?xml version="1.0" encoding="UTF-8"?>
<svg xmlns="http://www.w3.org/2000/svg" xmlns:xlink="http://www.w3.org/1999/xlink" width="64px" height="64px" viewBox="0 0 16 16" version="1.1">
<g id="surface1">
<path style=" stroke:none;fill-rule:nonzero;fill:rgb(0%,0%,0%);fill-opacity:1;" d="M 11 2.25 C 10.601562 2.25 10.222656 2.410156 9.941406 2.691406 C 9.660156 2.972656 9.5 3.351562 9.5 3.75 L 10 3.75 C 10 3.484375 10.105469 3.230469 10.292969 3.042969 C 10.480469 2.855469 10.734375 2.75 11 2.75 C 11.265625 2.753906 11.515625 2.859375 11.703125 3.046875 C 11.890625 3.234375 11.996094 3.484375 12 3.75 C 12 3.9375 11.949219 4.121094 11.847656 4.28125 C 11.75 4.441406 11.605469 4.566406 11.4375 4.648438 C 11.226562 4.761719 11.050781 4.925781 10.929688 5.132812 C 10.808594 5.335938 10.746094 5.570312 10.75 5.808594 L 10.75 6.5 L 11.25 6.5 L 11.25 5.808594 C 11.246094 5.664062 11.28125 5.519531 11.351562 5.394531 C 11.425781 5.269531 11.53125 5.167969 11.65625 5.097656 C 11.910156 4.976562 12.125 4.785156 12.273438 4.546875 C 12.421875 4.308594 12.5 4.03125 12.5 3.75 C 12.496094 3.355469 12.335938 2.976562 12.054688 2.695312 C 11.773438 2.414062 11.394531 2.253906 11 2.25 Z M 11 2.25 "/>
<path style=" stroke:none;fill-rule:nonzero;fill:rgb(0%,0%,0%);fill-opacity:1;" d="M 11.25 7 L 10.75 7 L 10.75 7.5 L 11.25 7.5 Z M 11.25 7 "/>
<path style=" stroke:none;fill-rule:nonzero;fill:rgb(0%,0%,0%);fill-opacity:1;" d="M 9.832031 10.667969 C 9.808594 10.691406 9.785156 10.71875 9.773438 10.75 C 9.757812 10.78125 9.75 10.816406 9.75 10.851562 L 9.75 15 L 4.75 15 L 4.75 12.75 C 4.75 12.683594 4.722656 12.621094 4.675781 12.574219 C 4.628906 12.527344 4.566406 12.5 4.5 12.5 L 3 12.5 C 2.800781 12.5 2.609375 12.421875 2.46875 12.28125 C 2.328125 12.140625 2.25 11.949219 2.25 11.75 L 2.25 10 C 2.25 9.933594 2.222656 9.871094 2.175781 9.824219 C 2.128906 9.777344 2.066406 9.75 2 9.75 L 1.019531 9.75 L 2.695312 7.65625 C 2.730469 7.613281 2.75 7.558594 2.75 7.5 C 2.746094 6.453125 3.132812 5.445312 3.828125 4.664062 C 4.527344 3.882812 5.488281 3.390625 6.527344 3.273438 L 6.472656 2.777344 C 5.324219 2.902344 4.265625 3.445312 3.488281 4.296875 C 2.710938 5.148438 2.269531 6.257812 2.25 7.410156 L 0.628906 9.4375 C 0.570312 9.511719 0.535156 9.601562 0.523438 9.691406 C 0.511719 9.785156 0.527344 9.882812 0.570312 9.964844 C 0.609375 10.050781 0.675781 10.125 0.753906 10.171875 C 0.832031 10.222656 0.925781 10.25 1.019531 10.25 L 1.75 10.25 L 1.75 11.75 C 1.75 12.082031 1.882812 12.398438 2.117188 12.632812 C 2.351562 12.867188 2.667969 13 3 13 L 4.25 13 L 4.25 15.25 C 4.25 15.316406 4.277344 15.378906 4.324219 15.425781 C 4.371094 15.472656 4.433594 15.5 4.5 15.5 L 10 15.5 C 10.066406 15.5 10.128906 15.472656 10.175781 15.425781 C 10.222656 15.378906 10.25 15.316406 10.25 15.25 L 10.25 10.960938 C 10.515625 10.710938 10.753906 10.429688 10.957031 10.125 L 10.542969 9.851562 C 10.339844 10.152344 10.101562 10.425781 9.832031 10.667969 Z M 9.832031 10.667969 "/>
<path style=" stroke:none;fill-rule:nonzero;fill:rgb(0%,0%,0%);fill-opacity:1;" d="M 11.25 0.5 L 10.75 0.5 L 10.75 1 L 11.25 1 Z M 11.25 0.5 "/>
<path style=" stroke:none;fill-rule:nonzero;fill:rgb(0%,0%,0%);fill-opacity:1;" d="M 10.078125 0.585938 L 9.59375 0.714844 L 9.722656 1.199219 L 10.207031 1.070312 Z M 10.078125 0.585938 "/>
<path style=" stroke:none;fill-rule:nonzero;fill:rgb(0%,0%,0%);fill-opacity:1;" d="M 8.964844 0.976562 L 8.535156 1.226562 L 8.785156 1.660156 L 9.214844 1.410156 Z M 8.964844 0.976562 "/>
<path style=" stroke:none;fill-rule:nonzero;fill:rgb(0%,0%,0%);fill-opacity:1;" d="M 7.996094 1.640625 L 7.640625 1.996094 L 7.996094 2.347656 L 8.347656 1.996094 Z M 7.996094 1.640625 "/>
<path style=" stroke:none;fill-rule:nonzero;fill:rgb(0%,0%,0%);fill-opacity:1;" d="M 7.226562 2.535156 L 6.976562 2.964844 L 7.410156 3.214844 L 7.660156 2.785156 Z M 7.226562 2.535156 "/>
<path style=" stroke:none;fill-rule:nonzero;fill:rgb(0%,0%,0%);fill-opacity:1;" d="M 6.71875 3.59375 L 6.589844 4.078125 L 7.074219 4.207031 L 7.203125 3.722656 Z M 6.71875 3.59375 "/>
<path style=" stroke:none;fill-rule:nonzero;fill:rgb(0%,0%,0%);fill-opacity:1;" d="M 7 4.75 L 6.5 4.75 L 6.5 5.25 L 7 5.25 Z M 7 4.75 "/>
<path style=" stroke:none;fill-rule:nonzero;fill:rgb(0%,0%,0%);fill-opacity:1;" d="M 7.070312 5.792969 L 6.589844 5.921875 L 6.71875 6.40625 L 7.199219 6.277344 Z M 7.070312 5.792969 "/>
<path style=" stroke:none;fill-rule:nonzero;fill:rgb(0%,0%,0%);fill-opacity:1;" d="M 7.410156 6.785156 L 6.976562 7.035156 L 7.226562 7.464844 L 7.660156 7.214844 Z M 7.410156 6.785156 "/>
<path style=" stroke:none;fill-rule:nonzero;fill:rgb(0%,0%,0%);fill-opacity:1;" d="M 7.996094 7.652344 L 7.640625 8.003906 L 7.996094 8.359375 L 8.347656 8.003906 Z M 7.996094 7.652344 "/>
<path style=" stroke:none;fill-rule:nonzero;fill:rgb(0%,0%,0%);fill-opacity:1;" d="M 8.785156 8.339844 L 8.535156 8.773438 L 8.964844 9.023438 L 9.214844 8.589844 Z M 8.785156 8.339844 "/>
<path style=" stroke:none;fill-rule:nonzero;fill:rgb(0%,0%,0%);fill-opacity:1;" d="M 9.722656 8.800781 L 9.59375 9.28125 L 10.078125 9.410156 L 10.207031 8.929688 Z M 9.722656 8.800781 "/>
<path style=" stroke:none;fill-rule:nonzero;fill:rgb(0%,0%,0%);fill-opacity:1;" d="M 11.25 9 L 10.75 9 L 10.75 9.5 L 11.25 9.5 Z M 11.25 9 "/>
<path style=" stroke:none;fill-rule:nonzero;fill:rgb(0%,0%,0%);fill-opacity:1;" d="M 12.28125 8.796875 L 11.796875 8.925781 L 11.925781 9.410156 L 12.410156 9.28125 Z M 12.28125 8.796875 "/>
<path style=" stroke:none;fill-rule:nonzero;fill:rgb(0%,0%,0%);fill-opacity:1;" d="M 13.214844 8.339844 L 12.785156 8.589844 L 13.035156 9.023438 L 13.464844 8.773438 Z M 13.214844 8.339844 "/>
<path style=" stroke:none;fill-rule:nonzero;fill:rgb(0%,0%,0%);fill-opacity:1;" d="M 14.003906 7.652344 L 13.652344 8.003906 L 14.003906 8.359375 L 14.359375 8.003906 Z M 14.003906 7.652344 "/>
<path style=" stroke:none;fill-rule:nonzero;fill:rgb(0%,0%,0%);fill-opacity:1;" d="M 14.589844 6.785156 L 14.339844 7.214844 L 14.773438 7.46875 L 15.023438 7.035156 Z M 14.589844 6.785156 "/>
<path style=" stroke:none;fill-rule:nonzero;fill:rgb(0%,0%,0%);fill-opacity:1;" d="M 14.929688 5.792969 L 14.800781 6.277344 L 15.28125 6.40625 L 15.410156 5.921875 Z M 14.929688 5.792969 "/>
<path style=" stroke:none;fill-rule:nonzero;fill:rgb(0%,0%,0%);fill-opacity:1;" d="M 15.5 4.75 L 15 4.75 L 15 5.25 L 15.5 5.25 Z M 15.5 4.75 "/>
<path style=" stroke:none;fill-rule:nonzero;fill:rgb(0%,0%,0%);fill-opacity:1;" d="M 15.285156 3.589844 L 14.800781 3.71875 L 14.929688 4.203125 L 15.414062 4.074219 Z M 15.285156 3.589844 "/>
<path style=" stroke:none;fill-rule:nonzero;fill:rgb(0%,0%,0%);fill-opacity:1;" d="M 14.773438 2.535156 L 14.339844 2.785156 L 14.589844 3.214844 L 15.023438 2.964844 Z M 14.773438 2.535156 "/>
<path style=" stroke:none;fill-rule:nonzero;fill:rgb(0%,0%,0%);fill-opacity:1;" d="M 14.003906 1.640625 L 13.652344 1.996094 L 14.003906 2.347656 L 14.359375 1.996094 Z M 14.003906 1.640625 "/>
<path style=" stroke:none;fill-rule:nonzero;fill:rgb(0%,0%,0%);fill-opacity:1;" d="M 13.035156 0.976562 L 12.785156 1.410156 L 13.214844 1.660156 L 13.464844 1.226562 Z M 13.035156 0.976562 "/>
<path style=" stroke:none;fill-rule:nonzero;fill:rgb(0%,0%,0%);fill-opacity:1;" d="M 11.921875 0.589844 L 11.792969 1.070312 L 12.277344 1.199219 L 12.40625 0.71875 Z M 11.921875 0.589844 "/>
</g>
</svg>
